# xmcd
#
# Track frame offsets:
#	150
#	15805
#	31190
#	44290
#	58965
#	71937
#	87380
#	104000
#	118335
#	139472
#	158292
#	174790
#	186542
#	199500
#	216615
#	233277
#	248355
#	261982
#	277940
#	293140
#
# Disc length: 4107 seconds
#
# Revision: 1
# Processed by: cddbd v1.4PL0 Copyright (c) Steve Scherf et al.
# Submitted via: audiograbber 1.80
#
DISCID=20100914
DTITLE=Various Artist - Hott Country 04
DYEAR=1900
DGENRE=
TTITLE0=Brooks and Dunn - My Maria
TTITLE1=Vince Gill - High Lonesome Sound
TTITLE2=Shenandoah - All Over But The Shoutin'
TTITLE3=Blackhawk - Almost A Memory Now
TTITLE4=Lorrie Morgan/Jon Randolph - By My Side
TTITLE5=David Lee Murphy - Every Time I Get Around
TTITLE6=Sammy Kershaw - Meant To Be
TTITLE7=Sky Kings - Picture Perfect
TTITLE8=Wynonna - Heaven Help My Heart
TTITLE9=Reba McEntire - Starting Over Again
TTITLE10=Keith Gattis - Little Drops Of My Heart
TTITLE11=Steve Earle - More Than I Can Do
TTITLE12=George Strait - Clear Blue Sky
TTITLE13=Toby Keith - Does That Blue Moon Ever Shine On You
TTITLE14=Bryan White - I'm Not Supposed To Love You Anymore
TTITLE15=Paul Brandt - My Heart Has A History
TTITLE16=Marty Stuart/Travis Tritt - Honky Tonkin' What I Do Best
TTITLE17=Martina McBride - Phones Are Ringin' All Over town
TTITLE18=Rhett Akins - Don't Get Me Started
TTITLE19=Alan Jackson - Home
EXTD=
EXTT0=
EXTT1=
EXTT2=
EXTT3=
EXTT4=
EXTT5=
EXTT6=
EXTT7=
EXTT8=
EXTT9=
EXTT10=
EXTT11=
EXTT12=
EXTT13=
EXTT14=
EXTT15=
EXTT16=
EXTT17=
EXTT18=
EXTT19=
PLAYORDER=
